<svg xmlns="http://www.w3.org/2000/svg" width="1663" height="1178" viewBox="0 0 1663 1178">
<defs><marker id="arr" viewBox="0 0 10 10" refX="8.5" refY="5" markerWidth="8" markerHeight="8" orient="auto-start-reverse"><path d="M0,0 L10,5 L0,10 z" fill="#7A8496"/></marker></defs>
<style>text{font-family:'Helvetica Neue',Helvetica,Arial,sans-serif}.title{font-size:16px;font-weight:700}.body{font-size:13px}.tag{font-size:11px;font-weight:700;fill:white;letter-spacing:.4px}.lane{font-size:13px;font-weight:800;letter-spacing:2.2px;fill:#8A94A6}.note{font-size:12.5px}</style>
<rect width="1663" height="1178" fill="white"/>
<rect x="1249.796875" y="26" width="16" height="16" rx="4" fill="#FFF3EA" stroke="#E8762C" stroke-width="1.5"/>
<text x="1273.796875" y="39" class="body" fill="#5B6577">LLM call</text>
<rect x="1344.921875" y="26" width="16" height="16" rx="4" fill="#EEF0FF" stroke="#4453C4" stroke-width="1.5"/>
<text x="1368.921875" y="39" class="body" fill="#5B6577">typed decision (Jev)</text>
<rect x="1506.73828125" y="26" width="16" height="16" rx="4" fill="#F5F7FA" stroke="#8A94A6" stroke-width="1.5"/>
<text x="1530.73828125" y="39" class="body" fill="#5B6577">code</text>
<rect x="1581.87109375" y="26" width="16" height="16" rx="4" fill="#E9F7F0" stroke="#2E9E6B" stroke-width="1.5"/>
<text x="1605.87109375" y="39" class="body" fill="#5B6577">store</text>
<rect x="20" y="60" width="1623" height="354" rx="22" fill="#FAFBFE" stroke="#E7EAF3"/>
<text x="46" y="94" class="lane">T0R</text>
<rect x="1346.58203125" y="75" width="270.41796875" height="26" rx="13" fill="white" stroke="#D5DAE3"/><text x="1481.791015625" y="92.5" class="note" text-anchor="middle" fill="#4B5566">per turn: 0 LLM, 0 Jev  |  per question: 1 Jev</text>
<line x1="742.37109375" y1="108" x2="742.37109375" y2="268" stroke="#D5DAE3" stroke-width="1.5"/>
<text x="732.37109375" y="120" class="note" text-anchor="end" fill="#8A94A6">write · per turn</text>
<text x="742.37109375" y="120" class="note" text-anchor="middle" fill="#8A94A6">|</text>
<text x="752.37109375" y="120" class="note" fill="#8A94A6">read · per question</text>
<path d="M195.57421875,195.0 L219.57421875,195.0" fill="none" stroke="#7A8496" stroke-width="2" marker-end="url(#arr)"/>
<rect x="48" y="133" width="149.57421875" height="130" rx="14" fill="#1F2430" opacity="0.06"/>
<rect x="46" y="130" width="149.57421875" height="130" rx="14" fill="#F5F7FA" stroke="#8A94A6" stroke-width="1.6"/>
<g transform="translate(64,148)"><path d="M2 4 h28 a4 4 0 0 1 4 4 v16 a4 4 0 0 1 -4 4 h-16 l-7 6 v-6 h-5 a4 4 0 0 1 -4 -4 v-16 a4 4 0 0 1 4 -4z" fill="white" stroke="#8A94A6" stroke-width="2"/><line x1="8" y1="12" x2="26" y2="12" stroke="#8A94A6" stroke-width="2" stroke-linecap="round"/><line x1="8" y1="19" x2="20" y2="19" stroke="#8A94A6" stroke-width="2" stroke-linecap="round"/></g>
<text x="108" y="164" class="title" fill="#1F2430">Message</text>
<text x="66" y="200" class="body" fill="#4B5566">speaker · date · text</text>
<rect x="223.57421875" y="133" width="144.98046875" height="130" rx="14" fill="#1F2430" opacity="0.06"/>
<rect x="221.57421875" y="130" width="144.98046875" height="130" rx="14" fill="#F5F7FA" stroke="#8A94A6" stroke-width="1.6"/>
<g transform="translate(239.57421875,148)"><rect x="2" y="2" width="6" height="6" rx="1.5" fill="#8A94A6" opacity="0.25"/><rect x="10" y="2" width="6" height="6" rx="1.5" fill="#8A94A6" opacity="0.88"/><rect x="18" y="2" width="6" height="6" rx="1.5" fill="#8A94A6" opacity="0.62"/><rect x="26" y="2" width="6" height="6" rx="1.5" fill="#8A94A6" opacity="0.38"/><rect x="2" y="10" width="6" height="6" rx="1.5" fill="#8A94A6" opacity="0.62"/><rect x="10" y="10" width="6" height="6" rx="1.5" fill="#8A94A6" opacity="0.38"/><rect x="18" y="10" width="6" height="6" rx="1.5" fill="#8A94A6" opacity="1.00"/><rect x="26" y="10" width="6" height="6" rx="1.5" fill="#8A94A6" opacity="0.75"/><rect x="2" y="18" width="6" height="6" rx="1.5" fill="#8A94A6" opacity="1.00"/><rect x="10" y="18" width="6" height="6" rx="1.5" fill="#8A94A6" opacity="0.75"/><rect x="18" y="18" width="6" height="6" rx="1.5" fill="#8A94A6" opacity="0.50"/><rect x="26" y="18" width="6" height="6" rx="1.5" fill="#8A94A6" opacity="0.25"/><rect x="2" y="26" width="6" height="6" rx="1.5" fill="#8A94A6" opacity="0.50"/><rect x="10" y="26" width="6" height="6" rx="1.5" fill="#8A94A6" opacity="0.25"/><rect x="18" y="26" width="6" height="6" rx="1.5" fill="#8A94A6" opacity="0.88"/><rect x="26" y="26" width="6" height="6" rx="1.5" fill="#8A94A6" opacity="0.62"/></g>
<text x="283.57421875" y="164" class="title" fill="#1F2430">Embed</text>
<text x="241.57421875" y="200" class="body" fill="#4B5566">one vector per turn</text>
<path d="M922.34375,195.0 L946.34375,195.0" fill="none" stroke="#7A8496" stroke-width="2" marker-end="url(#arr)"/>
<path d="M1094.546875,195.0 L1118.546875,195.0" fill="none" stroke="#7A8496" stroke-width="2" marker-end="url(#arr)"/>
<path d="M1275.953125,195.0 L1299.953125,195.0" fill="none" stroke="#7A8496" stroke-width="2" marker-end="url(#arr)"/>
<path d="M1457.52734375,195.0 L1481.52734375,195.0" fill="none" stroke="#7A8496" stroke-width="2" marker-end="url(#arr)"/>
<rect x="779.6015625" y="133" width="144.7421875" height="130" rx="14" fill="#1F2430" opacity="0.06"/>
<rect x="777.6015625" y="130" width="144.7421875" height="130" rx="14" fill="#F5F7FA" stroke="#8A94A6" stroke-width="1.6"/>
<g transform="translate(795.6015625,148)"><circle cx="17" cy="17" r="15" fill="white" stroke="#8A94A6" stroke-width="2"/><text x="17" y="24" text-anchor="middle" font-size="20" font-weight="bold" fill="#8A94A6">?</text></g>
<text x="839.6015625" y="164" class="title" fill="#1F2430">Question</text>
<text x="797.6015625" y="200" class="body" fill="#4B5566">user asks</text>
<rect x="950.34375" y="133" width="146.203125" height="130" rx="14" fill="#1F2430" opacity="0.06"/>
<rect x="948.34375" y="130" width="146.203125" height="130" rx="14" fill="#F5F7FA" stroke="#8A94A6" stroke-width="1.6"/>
<g transform="translate(966.34375,148)"><rect x="2" y="2" width="6" height="6" rx="1.5" fill="#8A94A6" opacity="0.25"/><rect x="10" y="2" width="6" height="6" rx="1.5" fill="#8A94A6" opacity="0.88"/><rect x="18" y="2" width="6" height="6" rx="1.5" fill="#8A94A6" opacity="0.62"/><rect x="26" y="2" width="6" height="6" rx="1.5" fill="#8A94A6" opacity="0.38"/><rect x="2" y="10" width="6" height="6" rx="1.5" fill="#8A94A6" opacity="0.62"/><rect x="10" y="10" width="6" height="6" rx="1.5" fill="#8A94A6" opacity="0.38"/><rect x="18" y="10" width="6" height="6" rx="1.5" fill="#8A94A6" opacity="1.00"/><rect x="26" y="10" width="6" height="6" rx="1.5" fill="#8A94A6" opacity="0.75"/><rect x="2" y="18" width="6" height="6" rx="1.5" fill="#8A94A6" opacity="1.00"/><rect x="10" y="18" width="6" height="6" rx="1.5" fill="#8A94A6" opacity="0.75"/><rect x="18" y="18" width="6" height="6" rx="1.5" fill="#8A94A6" opacity="0.50"/><rect x="26" y="18" width="6" height="6" rx="1.5" fill="#8A94A6" opacity="0.25"/><rect x="2" y="26" width="6" height="6" rx="1.5" fill="#8A94A6" opacity="0.50"/><rect x="10" y="26" width="6" height="6" rx="1.5" fill="#8A94A6" opacity="0.25"/><rect x="18" y="26" width="6" height="6" rx="1.5" fill="#8A94A6" opacity="0.88"/><rect x="26" y="26" width="6" height="6" rx="1.5" fill="#8A94A6" opacity="0.62"/></g>
<text x="1010.34375" y="164" class="title" fill="#1F2430">Shortlist</text>
<text x="968.34375" y="200" class="body" fill="#4B5566">cosine top 30 turns</text>
<rect x="1122.546875" y="133" width="155.40625" height="130" rx="14" fill="#1F2430" opacity="0.06"/>
<rect x="1120.546875" y="130" width="155.40625" height="130" rx="14" fill="#EEF0FF" stroke="#4453C4" stroke-width="1.6"/>
<g transform="translate(1138.546875,148)"><rect x="2" y="3" width="30" height="6" rx="3" fill="#4453C4" opacity="1.00"/><rect x="2" y="12" width="23" height="6" rx="3" fill="#4453C4" opacity="0.78"/><rect x="2" y="21" width="16" height="6" rx="3" fill="#4453C4" opacity="0.56"/><rect x="2" y="30" width="9" height="6" rx="3" fill="#4453C4" opacity="0.34"/></g>
<text x="1182.546875" y="164" class="title" fill="#1F2430">Relevance</text>
<text x="1182.546875" y="182" class="title" fill="#1F2430">per turn</text>
<text x="1140.546875" y="218" class="body" fill="#2F3A99">one request</text>
<text x="1140.546875" y="238" class="body" fill="#2F3A99">for all turns</text>
<rect x="1224.57734375" y="228" width="39.37578125" height="20" rx="10" fill="#4453C4"/>
<text x="1244.265234375" y="242" class="tag" text-anchor="middle">JEV</text>
<rect x="1303.953125" y="133" width="155.57421875" height="130" rx="14" fill="#1F2430" opacity="0.06"/>
<rect x="1301.953125" y="130" width="155.57421875" height="130" rx="14" fill="#F5F7FA" stroke="#8A94A6" stroke-width="1.6"/>
<g transform="translate(1319.953125,148)"><path d="M3 4 H31 L20 17 V29 L14 33 V17 Z" fill="white" stroke="#8A94A6" stroke-width="2" stroke-linejoin="round"/><line x1="8" y1="9" x2="26" y2="9" stroke="#8A94A6" stroke-width="2" stroke-linecap="round" opacity="0.6"/></g>
<text x="1363.953125" y="164" class="title" fill="#1F2430">Top k</text>
<text x="1321.953125" y="200" class="body" fill="#4B5566">kept above 0.5,</text>
<text x="1321.953125" y="220" class="body" fill="#4B5566">then cosine floor (10)</text>
<rect x="1485.52734375" y="133" width="133.47265625" height="130" rx="14" fill="#1F2430" opacity="0.06"/>
<rect x="1483.52734375" y="130" width="133.47265625" height="130" rx="14" fill="#FFF3EA" stroke="#E8762C" stroke-width="1.6"/>
<g transform="translate(1501.52734375,148)"><path d="M2 4 h28 a4 4 0 0 1 4 4 v16 a4 4 0 0 1 -4 4 h-16 l-7 6 v-6 h-5 a4 4 0 0 1 -4 -4 v-16 a4 4 0 0 1 4 -4z" fill="white" stroke="#E8762C" stroke-width="2"/><line x1="8" y1="12" x2="26" y2="12" stroke="#E8762C" stroke-width="2" stroke-linecap="round"/><line x1="8" y1="19" x2="20" y2="19" stroke="#E8762C" stroke-width="2" stroke-linecap="round"/><circle cx="29" cy="28" r="6" fill="#E8762C"/><path d="M26 28 l2 2 l4 -4" fill="none" stroke="white" stroke-width="1.6"/></g>
<text x="1545.52734375" y="164" class="title" fill="#1F2430">Answer</text>
<text x="1503.52734375" y="200" class="body" fill="#B8561A">gpt-4o-mini</text>
<text x="1503.52734375" y="220" class="body" fill="#B8561A">reads the first k</text>
<rect x="1562.7765625" y="228" width="42.2234375" height="20" rx="10" fill="#E8762C"/>
<text x="1583.88828125" y="242" class="tag" text-anchor="middle">LLM</text>
<path d="M294.064453125,260 C294.064453125,342.0 625.41015625,342.0 663.41015625,342.0" fill="none" stroke="#7A8496" stroke-width="2" marker-end="url(#arr)"/>
<path d="M819.33203125,342.0 C1021.4453125,342.0 1021.4453125,342.0 1021.4453125,262" fill="none" stroke="#7A8496" stroke-width="2" stroke-dasharray="5 5" marker-end="url(#arr)"/>
<rect x="667.41015625" y="289" width="153.921875" height="112" rx="14" fill="#1F2430" opacity="0.06"/>
<rect x="665.41015625" y="286" width="153.921875" height="112" rx="14" fill="#E9F7F0" stroke="#2E9E6B" stroke-width="1.6"/>
<g transform="translate(683.41015625,304)"><ellipse cx="16" cy="7" rx="13" ry="5" fill="white" stroke="#2E9E6B" stroke-width="2"/><path d="M3 7 v20 c0 3 6 5 13 5 s13 -2 13 -5 v-20" fill="white" stroke="#2E9E6B" stroke-width="2"/><path d="M3 17 c0 3 6 5 13 5 s13 -2 13 -5" fill="none" stroke="#2E9E6B" stroke-width="2"/><ellipse cx="16" cy="7" rx="13" ry="5" fill="white" stroke="#2E9E6B" stroke-width="2"/></g>
<text x="727.41015625" y="320" class="title" fill="#1F2430">Raw turns</text>
<text x="685.41015625" y="356" class="body" fill="#1D7350">[date] speaker: text</text>
<text x="685.41015625" y="376" class="body" fill="#1D7350">no LLM, no Jev</text>
<rect x="20" y="432" width="1623" height="354" rx="22" fill="#FAFBFE" stroke="#E7EAF3"/>
<text x="46" y="466" class="lane">ENGRAM V2</text>
<rect x="1310.91796875" y="447" width="306.08203125" height="26" rx="13" fill="white" stroke="#D5DAE3"/><text x="1463.958984375" y="464.5" class="note" text-anchor="middle" fill="#4B5566">per turn: 1 LLM, about 1 Jev  |  per question: 1 Jev</text>
<line x1="742.37109375" y1="480" x2="742.37109375" y2="640" stroke="#D5DAE3" stroke-width="1.5"/>
<text x="732.37109375" y="492" class="note" text-anchor="end" fill="#8A94A6">write · per turn</text>
<text x="742.37109375" y="492" class="note" text-anchor="middle" fill="#8A94A6">|</text>
<text x="752.37109375" y="492" class="note" fill="#8A94A6">read · per question</text>
<path d="M195.57421875,567.0 L219.57421875,567.0" fill="none" stroke="#7A8496" stroke-width="2" marker-end="url(#arr)"/>
<path d="M375.78515625,567.0 L399.78515625,567.0" fill="none" stroke="#7A8496" stroke-width="2" marker-end="url(#arr)"/>
<path d="M544.125,567.0 L568.125,567.0" fill="none" stroke="#7A8496" stroke-width="2" marker-end="url(#arr)"/>
<rect x="48" y="505" width="149.57421875" height="130" rx="14" fill="#1F2430" opacity="0.06"/>
<rect x="46" y="502" width="149.57421875" height="130" rx="14" fill="#F5F7FA" stroke="#8A94A6" stroke-width="1.6"/>
<g transform="translate(64,520)"><path d="M2 4 h28 a4 4 0 0 1 4 4 v16 a4 4 0 0 1 -4 4 h-16 l-7 6 v-6 h-5 a4 4 0 0 1 -4 -4 v-16 a4 4 0 0 1 4 -4z" fill="white" stroke="#8A94A6" stroke-width="2"/><line x1="8" y1="12" x2="26" y2="12" stroke="#8A94A6" stroke-width="2" stroke-linecap="round"/><line x1="8" y1="19" x2="20" y2="19" stroke="#8A94A6" stroke-width="2" stroke-linecap="round"/></g>
<text x="108" y="536" class="title" fill="#1F2430">Message</text>
<text x="66" y="572" class="body" fill="#4B5566">speaker · date · text</text>
<rect x="223.57421875" y="505" width="154.2109375" height="130" rx="14" fill="#1F2430" opacity="0.06"/>
<rect x="221.57421875" y="502" width="154.2109375" height="130" rx="14" fill="#FFF3EA" stroke="#E8762C" stroke-width="1.6"/>
<g transform="translate(239.57421875,520)"><path d="M16 2 L19.5 12.5 L30 16 L19.5 19.5 L16 30 L12.5 19.5 L2 16 L12.5 12.5 Z" fill="#E8762C" opacity="0.9"/><path d="M29 2 L30.5 6 L34 7.5 L30.5 9 L29 13 L27.5 9 L24 7.5 L27.5 6 Z" fill="#E8762C" opacity="0.55"/></g>
<text x="283.57421875" y="536" class="title" fill="#1F2430">Extraction</text>
<text x="241.57421875" y="572" class="body" fill="#B8561A">mem0 prompt</text>
<text x="241.57421875" y="592" class="body" fill="#B8561A">facts with dates</text>
<rect x="321.56171875" y="600" width="42.2234375" height="20" rx="10" fill="#E8762C"/>
<text x="342.6734375" y="614" class="tag" text-anchor="middle">LLM</text>
<rect x="403.78515625" y="505" width="142.33984375" height="130" rx="14" fill="#1F2430" opacity="0.06"/>
<rect x="401.78515625" y="502" width="142.33984375" height="130" rx="14" fill="#EEF0FF" stroke="#4453C4" stroke-width="1.6"/>
<g transform="translate(419.78515625,520)"><rect x="1" y="4" width="8" height="8" rx="2" fill="#4453C4"/><path d="M2.6 8 l2 2 l3 -4" fill="none" stroke="white" stroke-width="1.6"/><line x1="14" y1="8" x2="32" y2="8" stroke="#4453C4" stroke-width="2.4" stroke-linecap="round"/><rect x="1" y="15" width="8" height="8" rx="2" fill="#4453C4"/><path d="M2.6 19 l2 2 l3 -4" fill="none" stroke="white" stroke-width="1.6"/><line x1="14" y1="19" x2="27" y2="19" stroke="#4453C4" stroke-width="2.4" stroke-linecap="round"/><rect x="1" y="26" width="8" height="8" rx="2" fill="#4453C4"/><path d="M2.6 30 l2 2 l3 -4" fill="none" stroke="white" stroke-width="1.6"/><line x1="14" y1="30" x2="22" y2="30" stroke="#4453C4" stroke-width="2.4" stroke-linecap="round"/></g>
<text x="463.78515625" y="536" class="title" fill="#1F2430">Decision</text>
<text x="463.78515625" y="554" class="title" fill="#1F2430">chain</text>
<text x="421.78515625" y="590" class="body" fill="#2F3A99">types each fact,</text>
<text x="421.78515625" y="610" class="body" fill="#2F3A99">relates it</text>
<rect x="492.74921875" y="600" width="39.37578125" height="20" rx="10" fill="#4453C4"/>
<text x="512.437109375" y="614" class="tag" text-anchor="middle">JEV</text>
<rect x="572.125" y="505" width="136.24609375" height="130" rx="14" fill="#1F2430" opacity="0.06"/>
<rect x="570.125" y="502" width="136.24609375" height="130" rx="14" fill="#F5F7FA" stroke="#8A94A6" stroke-width="1.6"/>
<g transform="translate(588.125,520)"><path d="M17 2 L31 7 V17 C31 26 24 32 17 34 C10 32 3 26 3 17 V7 Z" fill="white" stroke="#8A94A6" stroke-width="2"/><path d="M11 18 l4 4 l8 -9" fill="none" stroke="#8A94A6" stroke-width="2.4" stroke-linecap="round" stroke-linejoin="round"/></g>
<text x="632.125" y="536" class="title" fill="#1F2430">Policy +</text>
<text x="632.125" y="554" class="title" fill="#1F2430">belief</text>
<text x="590.125" y="590" class="body" fill="#4B5566">gates · belief</text>
<text x="590.125" y="610" class="body" fill="#4B5566">closes stale facts</text>
<path d="M966.2578125,567.0 L990.2578125,567.0" fill="none" stroke="#7A8496" stroke-width="2" marker-end="url(#arr)"/>
<path d="M1137.25390625,567.0 L1161.25390625,567.0" fill="none" stroke="#7A8496" stroke-width="2" marker-end="url(#arr)"/>
<path d="M1301.01171875,567.0 L1325.01171875,567.0" fill="none" stroke="#7A8496" stroke-width="2" marker-end="url(#arr)"/>
<path d="M1457.52734375,567.0 L1481.52734375,567.0" fill="none" stroke="#7A8496" stroke-width="2" marker-end="url(#arr)"/>
<rect x="823.515625" y="505" width="144.7421875" height="130" rx="14" fill="#1F2430" opacity="0.06"/>
<rect x="821.515625" y="502" width="144.7421875" height="130" rx="14" fill="#F5F7FA" stroke="#8A94A6" stroke-width="1.6"/>
<g transform="translate(839.515625,520)"><circle cx="17" cy="17" r="15" fill="white" stroke="#8A94A6" stroke-width="2"/><text x="17" y="24" text-anchor="middle" font-size="20" font-weight="bold" fill="#8A94A6">?</text></g>
<text x="883.515625" y="536" class="title" fill="#1F2430">Question</text>
<text x="841.515625" y="572" class="body" fill="#4B5566">user asks</text>
<rect x="994.2578125" y="505" width="144.99609375" height="130" rx="14" fill="#1F2430" opacity="0.06"/>
<rect x="992.2578125" y="502" width="144.99609375" height="130" rx="14" fill="#F5F7FA" stroke="#8A94A6" stroke-width="1.6"/>
<g transform="translate(1010.2578125,520)"><rect x="2" y="2" width="6" height="6" rx="1.5" fill="#8A94A6" opacity="0.25"/><rect x="10" y="2" width="6" height="6" rx="1.5" fill="#8A94A6" opacity="0.88"/><rect x="18" y="2" width="6" height="6" rx="1.5" fill="#8A94A6" opacity="0.62"/><rect x="26" y="2" width="6" height="6" rx="1.5" fill="#8A94A6" opacity="0.38"/><rect x="2" y="10" width="6" height="6" rx="1.5" fill="#8A94A6" opacity="0.62"/><rect x="10" y="10" width="6" height="6" rx="1.5" fill="#8A94A6" opacity="0.38"/><rect x="18" y="10" width="6" height="6" rx="1.5" fill="#8A94A6" opacity="1.00"/><rect x="26" y="10" width="6" height="6" rx="1.5" fill="#8A94A6" opacity="0.75"/><rect x="2" y="18" width="6" height="6" rx="1.5" fill="#8A94A6" opacity="1.00"/><rect x="10" y="18" width="6" height="6" rx="1.5" fill="#8A94A6" opacity="0.75"/><rect x="18" y="18" width="6" height="6" rx="1.5" fill="#8A94A6" opacity="0.50"/><rect x="26" y="18" width="6" height="6" rx="1.5" fill="#8A94A6" opacity="0.25"/><rect x="2" y="26" width="6" height="6" rx="1.5" fill="#8A94A6" opacity="0.50"/><rect x="10" y="26" width="6" height="6" rx="1.5" fill="#8A94A6" opacity="0.25"/><rect x="18" y="26" width="6" height="6" rx="1.5" fill="#8A94A6" opacity="0.88"/><rect x="26" y="26" width="6" height="6" rx="1.5" fill="#8A94A6" opacity="0.62"/></g>
<text x="1054.2578125" y="536" class="title" fill="#1F2430">Shortlist</text>
<text x="1012.2578125" y="572" class="body" fill="#4B5566">cosine top 30 facts</text>
<text x="1012.2578125" y="592" class="body" fill="#4B5566">incl. closed facts</text>
<rect x="1165.25390625" y="505" width="137.7578125" height="130" rx="14" fill="#1F2430" opacity="0.06"/>
<rect x="1163.25390625" y="502" width="137.7578125" height="130" rx="14" fill="#EEF0FF" stroke="#4453C4" stroke-width="1.6"/>
<g transform="translate(1181.25390625,520)"><rect x="2" y="3" width="30" height="6" rx="3" fill="#4453C4" opacity="1.00"/><rect x="2" y="12" width="23" height="6" rx="3" fill="#4453C4" opacity="0.78"/><rect x="2" y="21" width="16" height="6" rx="3" fill="#4453C4" opacity="0.56"/><rect x="2" y="30" width="9" height="6" rx="3" fill="#4453C4" opacity="0.34"/></g>
<text x="1225.25390625" y="536" class="title" fill="#1F2430">Rerank</text>
<text x="1183.25390625" y="572" class="body" fill="#2F3A99">relevance per fact</text>
<text x="1183.25390625" y="592" class="body" fill="#2F3A99">+ relation pull</text>
<rect x="1249.6359375" y="600" width="39.37578125" height="20" rx="10" fill="#4453C4"/>
<text x="1269.323828125" y="614" class="tag" text-anchor="middle">JEV</text>
<rect x="1329.01171875" y="505" width="130.515625" height="130" rx="14" fill="#1F2430" opacity="0.06"/>
<rect x="1327.01171875" y="502" width="130.515625" height="130" rx="14" fill="#F5F7FA" stroke="#8A94A6" stroke-width="1.6"/>
<g transform="translate(1345.01171875,520)"><circle cx="17" cy="17" r="14" fill="white" stroke="#8A94A6" stroke-width="2"/><path d="M17 9 V17 L23 21" fill="none" stroke="#8A94A6" stroke-width="2.4" stroke-linecap="round"/><path d="M3 9 l0 -6 m0 6 l6 0" stroke="#8A94A6" stroke-width="2" stroke-linecap="round"/></g>
<text x="1389.01171875" y="536" class="title" fill="#1F2430">History</text>
<text x="1347.01171875" y="572" class="body" fill="#4B5566">add superseded</text>
<text x="1347.01171875" y="592" class="body" fill="#4B5566">facts</text>
<rect x="1485.52734375" y="505" width="133.47265625" height="130" rx="14" fill="#1F2430" opacity="0.06"/>
<rect x="1483.52734375" y="502" width="133.47265625" height="130" rx="14" fill="#FFF3EA" stroke="#E8762C" stroke-width="1.6"/>
<g transform="translate(1501.52734375,520)"><path d="M2 4 h28 a4 4 0 0 1 4 4 v16 a4 4 0 0 1 -4 4 h-16 l-7 6 v-6 h-5 a4 4 0 0 1 -4 -4 v-16 a4 4 0 0 1 4 -4z" fill="white" stroke="#E8762C" stroke-width="2"/><line x1="8" y1="12" x2="26" y2="12" stroke="#E8762C" stroke-width="2" stroke-linecap="round"/><line x1="8" y1="19" x2="20" y2="19" stroke="#E8762C" stroke-width="2" stroke-linecap="round"/><circle cx="29" cy="28" r="6" fill="#E8762C"/><path d="M26 28 l2 2 l4 -4" fill="none" stroke="white" stroke-width="1.6"/></g>
<text x="1545.52734375" y="536" class="title" fill="#1F2430">Answer</text>
<text x="1503.52734375" y="572" class="body" fill="#B8561A">gpt-4o-mini</text>
<text x="1503.52734375" y="592" class="body" fill="#B8561A">reads the first k</text>
<rect x="1562.7765625" y="600" width="42.2234375" height="20" rx="10" fill="#E8762C"/>
<text x="1583.88828125" y="614" class="tag" text-anchor="middle">LLM</text>
<path d="M690.37109375,632 L690.37109375,656" fill="none" stroke="#7A8496" stroke-width="2" marker-end="url(#arr)"/>
<path d="M818.900390625,714.0 C1064.755859375,714.0 1064.755859375,714.0 1064.755859375,634" fill="none" stroke="#7A8496" stroke-width="2" stroke-dasharray="5 5" marker-end="url(#arr)"/>
<rect x="667.841796875" y="661" width="153.05859375" height="112" rx="14" fill="#1F2430" opacity="0.06"/>
<rect x="665.841796875" y="658" width="153.05859375" height="112" rx="14" fill="#E9F7F0" stroke="#2E9E6B" stroke-width="1.6"/>
<g transform="translate(683.841796875,676)"><line x1="6" y1="8" x2="16" y2="18" stroke="#2E9E6B" stroke-width="1.8"/><line x1="26" y1="5" x2="16" y2="18" stroke="#2E9E6B" stroke-width="1.8"/><line x1="16" y1="18" x2="5" y2="28" stroke="#2E9E6B" stroke-width="1.8"/><line x1="16" y1="18" x2="28" y2="28" stroke="#2E9E6B" stroke-width="1.8"/><line x1="26" y1="5" x2="28" y2="28" stroke="#2E9E6B" stroke-width="1.8"/><circle cx="6" cy="8" r="4.2" fill="white" stroke="#2E9E6B" stroke-width="2"/><circle cx="26" cy="5" r="4.2" fill="white" stroke="#2E9E6B" stroke-width="2"/><circle cx="16" cy="18" r="4.2" fill="white" stroke="#2E9E6B" stroke-width="2"/><circle cx="5" cy="28" r="4.2" fill="white" stroke="#2E9E6B" stroke-width="2"/><circle cx="28" cy="28" r="4.2" fill="white" stroke="#2E9E6B" stroke-width="2"/></g>
<text x="727.841796875" y="692" class="title" fill="#1F2430">Fact store</text>
<text x="685.841796875" y="728" class="body" fill="#1D7350">facts as edges</text>
<text x="685.841796875" y="748" class="body" fill="#1D7350">validity windows</text>
<rect x="20" y="804" width="1623" height="354" rx="22" fill="#FAFBFE" stroke="#E7EAF3"/>
<text x="46" y="838" class="lane">JEV-MEM</text>
<rect x="1326.43359375" y="819" width="290.56640625" height="26" rx="13" fill="white" stroke="#D5DAE3"/><text x="1471.716796875" y="836.5" class="note" text-anchor="middle" fill="#4B5566">per turn: 0 LLM, 2 Jev  |  per question: 2–16 Jev</text>
<line x1="742.37109375" y1="852" x2="742.37109375" y2="1012" stroke="#D5DAE3" stroke-width="1.5"/>
<text x="732.37109375" y="864" class="note" text-anchor="end" fill="#8A94A6">write · per turn</text>
<text x="742.37109375" y="864" class="note" text-anchor="middle" fill="#8A94A6">|</text>
<text x="752.37109375" y="864" class="note" fill="#8A94A6">read · per question</text>
<path d="M184.015625,939.0 L208.015625,939.0" fill="none" stroke="#7A8496" stroke-width="2" marker-end="url(#arr)"/>
<rect x="48" y="877" width="138.015625" height="130" rx="14" fill="#1F2430" opacity="0.06"/>
<rect x="46" y="874" width="138.015625" height="130" rx="14" fill="#F5F7FA" stroke="#8A94A6" stroke-width="1.6"/>
<g transform="translate(64,892)"><path d="M2 4 h28 a4 4 0 0 1 4 4 v16 a4 4 0 0 1 -4 4 h-16 l-7 6 v-6 h-5 a4 4 0 0 1 -4 -4 v-16 a4 4 0 0 1 4 -4z" fill="white" stroke="#8A94A6" stroke-width="2"/><line x1="8" y1="12" x2="26" y2="12" stroke="#8A94A6" stroke-width="2" stroke-linecap="round"/><line x1="8" y1="19" x2="20" y2="19" stroke="#8A94A6" stroke-width="2" stroke-linecap="round"/></g>
<text x="108" y="908" class="title" fill="#1F2430">Turn</text>
<text x="66" y="944" class="body" fill="#4B5566">one node per turn</text>
<rect x="212.015625" y="877" width="183.353125" height="130" rx="14" fill="#1F2430" opacity="0.06"/>
<rect x="210.015625" y="874" width="183.353125" height="130" rx="14" fill="#EEF0FF" stroke="#4453C4" stroke-width="1.6"/>
<g transform="translate(228.015625,892)"><rect x="1" y="4" width="8" height="8" rx="2" fill="#4453C4"/><path d="M2.6 8 l2 2 l3 -4" fill="none" stroke="white" stroke-width="1.6"/><line x1="14" y1="8" x2="32" y2="8" stroke="#4453C4" stroke-width="2.4" stroke-linecap="round"/><rect x="1" y="15" width="8" height="8" rx="2" fill="#4453C4"/><path d="M2.6 19 l2 2 l3 -4" fill="none" stroke="white" stroke-width="1.6"/><line x1="14" y1="19" x2="27" y2="19" stroke="#4453C4" stroke-width="2.4" stroke-linecap="round"/><rect x="1" y="26" width="8" height="8" rx="2" fill="#4453C4"/><path d="M2.6 30 l2 2 l3 -4" fill="none" stroke="white" stroke-width="1.6"/><line x1="14" y1="30" x2="22" y2="30" stroke="#4453C4" stroke-width="2.4" stroke-linecap="round"/></g>
<text x="272.015625" y="908" class="title" fill="#1F2430">Memory type</text>
<text x="272.015625" y="926" class="title" fill="#1F2430">+ relations</text>
<text x="230.015625" y="962" class="body" fill="#2F3A99">type the turn,</text>
<text x="230.015625" y="982" class="body" fill="#2F3A99">link it to nodes</text>
<rect x="325.015625" y="972" width="56.353125" height="20" rx="10" fill="#4453C4"/>
<text x="353.1921875" y="986" class="tag" text-anchor="middle">JEV ×2</text>
<path d="M940.8671875,939.0 L964.8671875,939.0" fill="none" stroke="#7A8496" stroke-width="2" marker-end="url(#arr)"/>
<path d="M1114.7421875,939.0 L1138.7421875,939.0" fill="none" stroke="#7A8496" stroke-width="2" marker-end="url(#arr)"/>
<path d="M1303.52734375,939.0 L1327.52734375,939.0" fill="none" stroke="#7A8496" stroke-width="2" marker-end="url(#arr)"/>
<path d="M1457.52734375,939.0 L1481.52734375,939.0" fill="none" stroke="#7A8496" stroke-width="2" marker-end="url(#arr)"/>
<rect x="798.125" y="877" width="144.7421875" height="130" rx="14" fill="#1F2430" opacity="0.06"/>
<rect x="796.125" y="874" width="144.7421875" height="130" rx="14" fill="#F5F7FA" stroke="#8A94A6" stroke-width="1.6"/>
<g transform="translate(814.125,892)"><circle cx="17" cy="17" r="15" fill="white" stroke="#8A94A6" stroke-width="2"/><text x="17" y="24" text-anchor="middle" font-size="20" font-weight="bold" fill="#8A94A6">?</text></g>
<text x="858.125" y="908" class="title" fill="#1F2430">Question</text>
<text x="816.125" y="944" class="body" fill="#4B5566">user asks</text>
<rect x="968.8671875" y="877" width="147.875" height="130" rx="14" fill="#1F2430" opacity="0.06"/>
<rect x="966.8671875" y="874" width="147.875" height="130" rx="14" fill="#F5F7FA" stroke="#8A94A6" stroke-width="1.6"/>
<g transform="translate(984.8671875,892)"><circle cx="17" cy="6" r="4" fill="white" stroke="#8A94A6" stroke-width="2"/><line x1="17" y1="10" x2="17" y2="32" stroke="#8A94A6" stroke-width="2.4" stroke-linecap="round"/><line x1="10" y1="15" x2="24" y2="15" stroke="#8A94A6" stroke-width="2.2" stroke-linecap="round"/><path d="M4 21 C5 29 11 32 17 32 C23 32 29 29 30 21" fill="none" stroke="#8A94A6" stroke-width="2.4" stroke-linecap="round"/></g>
<text x="1028.8671875" y="908" class="title" fill="#1F2430">Anchors</text>
<text x="986.8671875" y="944" class="body" fill="#4B5566">vector + keyword</text>
<text x="986.8671875" y="964" class="body" fill="#4B5566">search, fused (RRF)</text>
<rect x="1142.7421875" y="877" width="162.78515625" height="130" rx="14" fill="#1F2430" opacity="0.06"/>
<rect x="1140.7421875" y="874" width="162.78515625" height="130" rx="14" fill="#EEF0FF" stroke="#4453C4" stroke-width="1.6"/>
<g transform="translate(1158.7421875,892)"><path d="M5 28 L13 10 L24 20 L30 5" fill="none" stroke="#4453C4" stroke-width="2"/><circle cx="5" cy="28" r="4" fill="white" stroke="#4453C4" stroke-width="2"/><circle cx="13" cy="10" r="4" fill="white" stroke="#4453C4" stroke-width="2"/><circle cx="24" cy="20" r="4" fill="white" stroke="#4453C4" stroke-width="2"/><circle cx="30" cy="5" r="4" fill="#4453C4" stroke="#4453C4" stroke-width="2"/></g>
<text x="1202.7421875" y="908" class="title" fill="#1F2430">Graph walk</text>
<text x="1160.7421875" y="944" class="body" fill="#2F3A99">routing, traversal,</text>
<text x="1160.7421875" y="964" class="body" fill="#2F3A99">stopping per round</text>
<rect x="1216.23984375" y="972" width="75.2875" height="20" rx="10" fill="#4453C4"/>
<text x="1253.88359375" y="986" class="tag" text-anchor="middle">JEV ×2–16</text>
<rect x="1331.52734375" y="877" width="128" height="130" rx="14" fill="#1F2430" opacity="0.06"/>
<rect x="1329.52734375" y="874" width="128" height="130" rx="14" fill="#F5F7FA" stroke="#8A94A6" stroke-width="1.6"/>
<g transform="translate(1347.52734375,892)"><path d="M3 4 H31 L20 17 V29 L14 33 V17 Z" fill="white" stroke="#8A94A6" stroke-width="2" stroke-linejoin="round"/><line x1="8" y1="9" x2="26" y2="9" stroke="#8A94A6" stroke-width="2" stroke-linecap="round" opacity="0.6"/></g>
<text x="1391.52734375" y="908" class="title" fill="#1F2430">Top k</text>
<text x="1349.52734375" y="944" class="body" fill="#4B5566">top k nodes</text>
<text x="1349.52734375" y="964" class="body" fill="#4B5566">by score</text>
<rect x="1485.52734375" y="877" width="133.47265625" height="130" rx="14" fill="#1F2430" opacity="0.06"/>
<rect x="1483.52734375" y="874" width="133.47265625" height="130" rx="14" fill="#FFF3EA" stroke="#E8762C" stroke-width="1.6"/>
<g transform="translate(1501.52734375,892)"><path d="M2 4 h28 a4 4 0 0 1 4 4 v16 a4 4 0 0 1 -4 4 h-16 l-7 6 v-6 h-5 a4 4 0 0 1 -4 -4 v-16 a4 4 0 0 1 4 -4z" fill="white" stroke="#E8762C" stroke-width="2"/><line x1="8" y1="12" x2="26" y2="12" stroke="#E8762C" stroke-width="2" stroke-linecap="round"/><line x1="8" y1="19" x2="20" y2="19" stroke="#E8762C" stroke-width="2" stroke-linecap="round"/><circle cx="29" cy="28" r="6" fill="#E8762C"/><path d="M26 28 l2 2 l4 -4" fill="none" stroke="white" stroke-width="1.6"/></g>
<text x="1545.52734375" y="908" class="title" fill="#1F2430">Answer</text>
<text x="1503.52734375" y="944" class="body" fill="#B8561A">gpt-4o-mini</text>
<text x="1503.52734375" y="964" class="body" fill="#B8561A">reads the first k</text>
<rect x="1562.7765625" y="972" width="42.2234375" height="20" rx="10" fill="#E8762C"/>
<text x="1583.88828125" y="986" class="tag" text-anchor="middle">LLM</text>
<path d="M301.6921875,1004 C301.6921875,1086.0 617.435546875,1086.0 655.435546875,1086.0" fill="none" stroke="#7A8496" stroke-width="2" marker-end="url(#arr)"/>
<path d="M827.306640625,1086.0 C1040.8046875,1086.0 1040.8046875,1086.0 1040.8046875,1006" fill="none" stroke="#7A8496" stroke-width="2" stroke-dasharray="5 5" marker-end="url(#arr)"/>
<rect x="659.435546875" y="1033" width="169.87109375" height="112" rx="14" fill="#1F2430" opacity="0.06"/>
<rect x="657.435546875" y="1030" width="169.87109375" height="112" rx="14" fill="#E9F7F0" stroke="#2E9E6B" stroke-width="1.6"/>
<g transform="translate(675.435546875,1048)"><line x1="6" y1="8" x2="16" y2="18" stroke="#2E9E6B" stroke-width="1.8"/><line x1="26" y1="5" x2="16" y2="18" stroke="#2E9E6B" stroke-width="1.8"/><line x1="16" y1="18" x2="5" y2="28" stroke="#2E9E6B" stroke-width="1.8"/><line x1="16" y1="18" x2="28" y2="28" stroke="#2E9E6B" stroke-width="1.8"/><line x1="26" y1="5" x2="28" y2="28" stroke="#2E9E6B" stroke-width="1.8"/><circle cx="6" cy="8" r="4.2" fill="white" stroke="#2E9E6B" stroke-width="2"/><circle cx="26" cy="5" r="4.2" fill="white" stroke="#2E9E6B" stroke-width="2"/><circle cx="16" cy="18" r="4.2" fill="white" stroke="#2E9E6B" stroke-width="2"/><circle cx="5" cy="28" r="4.2" fill="white" stroke="#2E9E6B" stroke-width="2"/><circle cx="28" cy="28" r="4.2" fill="white" stroke="#2E9E6B" stroke-width="2"/></g>
<text x="719.435546875" y="1064" class="title" fill="#1F2430">Turn graph</text>
<text x="677.435546875" y="1100" class="body" fill="#1D7350">typed edges</text>
<text x="677.435546875" y="1120" class="body" fill="#1D7350">vector + keyword index</text>
</svg>