<?xml version="1.0" encoding="utf-8" standalone="no"?>
<!DOCTYPE svg PUBLIC "-//W3C//DTD SVG 1.1//EN"
  "http://www.w3.org/Graphics/SVG/1.1/DTD/svg11.dtd">
<svg xmlns:xlink="http://www.w3.org/1999/xlink" width="221.395pt" height="145.679pt" viewBox="0 0 221.395 145.679" xmlns="http://www.w3.org/2000/svg" version="1.1">
 <metadata>
  <rdf:RDF xmlns:dc="http://purl.org/dc/elements/1.1/" xmlns:cc="http://creativecommons.org/ns#" xmlns:rdf="http://www.w3.org/1999/02/22-rdf-syntax-ns#">
   <cc:Work>
    <dc:type rdf:resource="http://purl.org/dc/dcmitype/StillImage"/>
    <dc:date>2026-09-26T20:10:19.803154</dc:date>
    <dc:format>image/svg+xml</dc:format>
    <dc:creator>
     <cc:Agent>
      <dc:title>Matplotlib v3.11.2, https://matplotlib.org/</dc:title>
     </cc:Agent>
    </dc:creator>
   </cc:Work>
  </rdf:RDF>
 </metadata>
 <defs>
  <style type="text/css">*{stroke-linejoin: round; stroke-linecap: butt}</style>
 </defs>
 <g id="figure_1">
  <g id="patch_1">
   <path d="M 0 145.679 
L 221.395 145.679 
L 221.395 0 
L 0 0 
z
" style="fill: #ffffff"/>
  </g>
  <g id="axes_1">
   <g id="patch_2">
    <path d="M 35.815 117.864 
L 219.955 117.864 
L 219.955 1.44 
L 35.815 1.44 
z
" style="fill: #ffffff"/>
   </g>
   <g id="matplotlib.axis_1">
    <g id="xtick_1">
     <g id="line2d_1">
      <defs>
       <path id="m00f57e8e78" d="M 0 0 
L 0 3.5 
" style="stroke: #56707c; stroke-width: 0.6"/>
      </defs>
      <g>
       <use xlink:href="#m00f57e8e78" x="76.172553" y="117.864" style="fill: #56707c; stroke: #56707c; stroke-width: 0.6"/>
      </g>
     </g>
     <g id="text_1">
      <text style="font-size: 8px; font-family: 'cmss10', 'DejaVu Sans'; text-anchor: middle; fill: #56707c" x="76.172553" y="130.590563" transform="rotate(-0 76.172553 130.590563)">3</text>
     </g>
    </g>
    <g id="xtick_2">
     <g id="line2d_2">
      <g>
       <use xlink:href="#m00f57e8e78" x="114.648275" y="117.864" style="fill: #56707c; stroke: #56707c; stroke-width: 0.6"/>
      </g>
     </g>
     <g id="text_2">
      <text style="font-size: 8px; font-family: 'cmss10', 'DejaVu Sans'; text-anchor: middle; fill: #56707c" x="114.648275" y="130.590563" transform="rotate(-0 114.648275 130.590563)">6</text>
     </g>
    </g>
    <g id="xtick_3">
     <g id="line2d_3">
      <g>
       <use xlink:href="#m00f57e8e78" x="181.479279" y="117.864" style="fill: #56707c; stroke: #56707c; stroke-width: 0.6"/>
      </g>
     </g>
     <g id="text_3">
      <text style="font-size: 8px; font-family: 'cmss10', 'DejaVu Sans'; text-anchor: middle; fill: #56707c" x="181.479279" y="130.590563" transform="rotate(-0 181.479279 130.590563)">20</text>
     </g>
    </g>
    <g id="text_4">
     <text style="font-size: 8px; font-family: 'cmss10', 'DejaVu Sans'; text-anchor: middle; fill: #263238" x="127.885" y="142.239" transform="rotate(-0 127.885 142.239)">k (items the answer model reads)</text>
    </g>
   </g>
   <g id="matplotlib.axis_2">
    <g id="ytick_1">
     <g id="line2d_4">
      <defs>
       <path id="mcea1535f94" d="M 0 0 
L -3.5 0 
" style="stroke: #56707c; stroke-width: 0.6"/>
      </defs>
      <g>
       <use xlink:href="#mcea1535f94" x="35.815" y="102.987491" style="fill: #56707c; stroke: #56707c; stroke-width: 0.6"/>
      </g>
     </g>
     <g id="text_5">
      <text style="font-size: 8px; font-family: 'cmss10', 'DejaVu Sans'; text-anchor: end; fill: #56707c" x="28.815" y="105.850773" transform="rotate(-0 28.815 105.850773)">0</text>
     </g>
    </g>
    <g id="ytick_2">
     <g id="line2d_5">
      <g>
       <use xlink:href="#mcea1535f94" x="35.815" y="79.38824" style="fill: #56707c; stroke: #56707c; stroke-width: 0.6"/>
      </g>
     </g>
     <g id="text_6">
      <text style="font-size: 8px; font-family: 'cmss10', 'DejaVu Sans'; text-anchor: end; fill: #56707c" x="28.815" y="82.251522" transform="rotate(-0 28.815 82.251522)">5</text>
     </g>
    </g>
    <g id="ytick_3">
     <g id="line2d_6">
      <g>
       <use xlink:href="#mcea1535f94" x="35.815" y="55.788989" style="fill: #56707c; stroke: #56707c; stroke-width: 0.6"/>
      </g>
     </g>
     <g id="text_7">
      <text style="font-size: 8px; font-family: 'cmss10', 'DejaVu Sans'; text-anchor: end; fill: #56707c" x="28.815" y="58.652271" transform="rotate(-0 28.815 58.652271)">10</text>
     </g>
    </g>
    <g id="ytick_4">
     <g id="line2d_7">
      <g>
       <use xlink:href="#mcea1535f94" x="35.815" y="32.189738" style="fill: #56707c; stroke: #56707c; stroke-width: 0.6"/>
      </g>
     </g>
     <g id="text_8">
      <text style="font-size: 8px; font-family: 'cmss10', 'DejaVu Sans'; text-anchor: end; fill: #56707c" x="28.815" y="35.05302" transform="rotate(-0 28.815 35.05302)">15</text>
     </g>
    </g>
    <g id="ytick_5">
     <g id="line2d_8">
      <g>
       <use xlink:href="#mcea1535f94" x="35.815" y="8.590487" style="fill: #56707c; stroke: #56707c; stroke-width: 0.6"/>
      </g>
     </g>
     <g id="text_9">
      <text style="font-size: 8px; font-family: 'cmss10', 'DejaVu Sans'; text-anchor: end; fill: #56707c" x="28.815" y="11.453769" transform="rotate(-0 28.815 11.453769)">20</text>
     </g>
    </g>
    <g id="text_10">
     <text style="font-size: 8px; font-family: 'cmss10', 'DejaVu Sans'; fill: #263238" transform="translate(7.166563 91.793875) rotate(-90)">Turns + Jev minus</text>
     <text style="font-size: 8px; font-family: 'cmss10', 'DejaVu Sans'; fill: #263238" transform="translate(14.815 99.756375) rotate(-90)">Turns + cosine (points)</text>
    </g>
   </g>
   <g id="LineCollection_1">
    <path d="M 72.144246 35.443554 
L 72.144246 6.732 
" clip-path="url(#pae318ed79e)" style="fill: none; stroke: #37474f; stroke-width: 0.8"/>
    <path d="M 110.619968 76.122017 
L 110.619968 50.986574 
" clip-path="url(#pae318ed79e)" style="fill: none; stroke: #37474f; stroke-width: 0.8"/>
    <path d="M 177.450972 106.469696 
L 177.450972 84.945338 
" clip-path="url(#pae318ed79e)" style="fill: none; stroke: #37474f; stroke-width: 0.8"/>
   </g>
   <g id="line2d_9">
    <defs>
     <path id="m23cb6a0c78" d="M 2 0 
L -2 -0 
" style="stroke: #37474f"/>
    </defs>
    <g clip-path="url(#pae318ed79e)">
     <use xlink:href="#m23cb6a0c78" x="72.144246" y="35.443554" style="fill: #37474f; stroke: #37474f"/>
     <use xlink:href="#m23cb6a0c78" x="110.619968" y="76.122017" style="fill: #37474f; stroke: #37474f"/>
     <use xlink:href="#m23cb6a0c78" x="177.450972" y="106.469696" style="fill: #37474f; stroke: #37474f"/>
    </g>
   </g>
   <g id="line2d_10">
    <g clip-path="url(#pae318ed79e)">
     <use xlink:href="#m23cb6a0c78" x="72.144246" y="6.732" style="fill: #37474f; stroke: #37474f"/>
     <use xlink:href="#m23cb6a0c78" x="110.619968" y="50.986574" style="fill: #37474f; stroke: #37474f"/>
     <use xlink:href="#m23cb6a0c78" x="177.450972" y="84.945338" style="fill: #37474f; stroke: #37474f"/>
    </g>
   </g>
   <g id="LineCollection_2">
    <path d="M 79.928199 76.877335 
L 79.928199 42.734432 
" clip-path="url(#pae318ed79e)" style="fill: none; stroke: #3478c8; stroke-width: 0.8"/>
    <path d="M 185.234925 112.572 
L 185.234925 83.360748 
" clip-path="url(#pae318ed79e)" style="fill: none; stroke: #3478c8; stroke-width: 0.8"/>
   </g>
   <g id="line2d_11">
    <defs>
     <path id="m33490ba16b" d="M 2 0 
L -2 -0 
" style="stroke: #3478c8"/>
    </defs>
    <g clip-path="url(#pae318ed79e)">
     <use xlink:href="#m33490ba16b" x="79.928199" y="76.877335" style="fill: #3478c8; stroke: #3478c8"/>
     <use xlink:href="#m33490ba16b" x="185.234925" y="112.572" style="fill: #3478c8; stroke: #3478c8"/>
    </g>
   </g>
   <g id="line2d_12">
    <g clip-path="url(#pae318ed79e)">
     <use xlink:href="#m33490ba16b" x="79.928199" y="42.734432" style="fill: #3478c8; stroke: #3478c8"/>
     <use xlink:href="#m33490ba16b" x="185.234925" y="83.360748" style="fill: #3478c8; stroke: #3478c8"/>
    </g>
   </g>
   <g id="line2d_13">
    <path d="M 35.815 102.987491 
L 219.955 102.987491 
" clip-path="url(#pae318ed79e)" style="fill: none; stroke: #000000; stroke-width: 0.6; stroke-linecap: square"/>
   </g>
   <g id="line2d_14">
    <path d="M 72.144246 21.087777 
L 110.619968 63.554296 
L 177.450972 95.707517 
" clip-path="url(#pae318ed79e)" style="fill: none; stroke: #37474f; stroke-width: 1.2; stroke-linecap: square"/>
    <defs>
     <path id="m5e34a5e999" d="M 0 2 
C 0.530406 2 1.03916 1.789267 1.414214 1.414214 
C 1.789267 1.03916 2 0.530406 2 0 
C 2 -0.530406 1.789267 -1.03916 1.414214 -1.414214 
C 1.03916 -1.789267 0.530406 -2 0 -2 
C -0.530406 -2 -1.03916 -1.789267 -1.414214 -1.414214 
C -1.789267 -1.03916 -2 -0.530406 -2 0 
C -2 0.530406 -1.789267 1.03916 -1.414214 1.414214 
C -1.03916 1.789267 -0.530406 2 0 2 
z
" style="stroke: #37474f"/>
    </defs>
    <g clip-path="url(#pae318ed79e)">
     <use xlink:href="#m5e34a5e999" x="72.144246" y="21.087777" style="fill: #37474f; stroke: #37474f"/>
     <use xlink:href="#m5e34a5e999" x="110.619968" y="63.554296" style="fill: #37474f; stroke: #37474f"/>
     <use xlink:href="#m5e34a5e999" x="177.450972" y="95.707517" style="fill: #37474f; stroke: #37474f"/>
    </g>
   </g>
   <g id="line2d_15">
    <path d="M 79.928199 59.805883 
L 185.234925 97.966374 
" clip-path="url(#pae318ed79e)" style="fill: none; stroke: #3478c8; stroke-width: 1.2; stroke-linecap: square"/>
    <defs>
     <path id="m336959b35e" d="M 0 2 
C 0.530406 2 1.03916 1.789267 1.414214 1.414214 
C 1.789267 1.03916 2 0.530406 2 0 
C 2 -0.530406 1.789267 -1.03916 1.414214 -1.414214 
C 1.03916 -1.789267 0.530406 -2 0 -2 
C -0.530406 -2 -1.03916 -1.789267 -1.414214 -1.414214 
C -1.789267 -1.03916 -2 -0.530406 -2 0 
C -2 0.530406 -1.789267 1.03916 -1.414214 1.414214 
C -1.03916 1.789267 -0.530406 2 0 2 
z
" style="stroke: #3478c8"/>
    </defs>
    <g clip-path="url(#pae318ed79e)">
     <use xlink:href="#m336959b35e" x="79.928199" y="59.805883" style="fill: #3478c8; stroke: #3478c8"/>
     <use xlink:href="#m336959b35e" x="185.234925" y="97.966374" style="fill: #3478c8; stroke: #3478c8"/>
    </g>
   </g>
   <g id="patch_3">
    <path d="M 35.815 117.864 
L 35.815 1.44 
" style="fill: none; stroke: #56707c; stroke-width: 0.6; stroke-linejoin: miter; stroke-linecap: square"/>
   </g>
   <g id="patch_4">
    <path d="M 35.815 117.864 
L 219.955 117.864 
" style="fill: none; stroke: #56707c; stroke-width: 0.6; stroke-linejoin: miter; stroke-linecap: square"/>
   </g>
   <g id="text_11">
    <text style="font-size: 8px; font-family: 'cmss10', 'DejaVu Sans'; text-anchor: end; fill: #37474f" x="65.144246" y="23.12684" transform="rotate(-0 65.144246 23.12684)">+17.4</text>
   </g>
   <g id="text_12">
    <text style="font-size: 8px; font-family: 'cmss10', 'DejaVu Sans'; text-anchor: end; fill: #37474f" x="170.450972" y="97.746579" transform="rotate(-0 170.450972 97.746579)">+1.5</text>
   </g>
   <g id="text_13">
    <text style="font-size: 8px; font-family: 'cmss10', 'DejaVu Sans'; text-anchor: start; fill: #37474f" x="119.938822" y="43.989364" transform="rotate(-0 119.938822 43.989364)">LoCoMo</text>
   </g>
   <g id="text_14">
    <text style="font-size: 8px; font-family: 'cmss10', 'DejaVu Sans'; text-anchor: start; fill: #3478c8" x="86.928199" y="61.844946" transform="rotate(-0 86.928199 61.844946)">+9.1</text>
   </g>
   <g id="text_15">
    <text style="font-size: 8px; font-family: 'cmss10', 'DejaVu Sans'; text-anchor: start; fill: #3478c8" x="192.234925" y="100.005437" transform="rotate(-0 192.234925 100.005437)">+1.1</text>
   </g>
   <g id="text_16">
    <text style="font-size: 8px; font-family: 'cmss10', 'DejaVu Sans'; text-anchor: start; fill: #3478c8" x="87.813874" y="90.715881" transform="rotate(-0 87.813874 90.715881)">LongMemEval</text>
   </g>
  </g>
 </g>
 <defs>
  <clipPath id="pae318ed79e">
   <rect x="35.815" y="1.44" width="184.14" height="116.424"/>
  </clipPath>
 </defs>
</svg>
